<?xml version="1.0" encoding="utf-8"?><svg width="200" height="154" viewBox="0 0 200 154" xmlns="http://www.w3.org/2000/svg" xmlns:xlink="http://www.w3.org/1999/xlink"><svg viewBox="0 0 50 26" fill-rule="evenodd" width="50" height="26" id="arrow-left" y="101" xmlns="http://www.w3.org/2000/svg"><path d="M6.2 5.6C2.8 8.7 0 11.7 0 12.4 0 13.9 12.2 26 13.8 26c3 0 2.3-3.3-1.4-7.1L8.6 15h20.7c20 0 20.7-.1 20.7-2s-.7-2-20.7-2H8.6l3.8-3.9c2.5-2.5 3.7-4.5 3.3-5.5-1.1-2.7-3.1-1.8-9.5 4z"/></svg><svg viewBox="0 0 50 26" fill-rule="evenodd" width="50" height="26" id="arrow-right" x="50" y="101" xmlns="http://www.w3.org/2000/svg"><path d="M34.3 1.6c-.4 1 .8 3 3.3 5.5l3.8 3.9H20.7C.7 11 0 11.1 0 13s.7 2 20.7 2h20.7l-3.8 3.9c-3.8 3.9-4.4 7.1-1.4 7.1C37.8 26 50 13.9 50 12.3 50 10.8 38 0 36.3 0c-.8 0-1.6.7-2 1.6z"/></svg><svg viewBox="0 0 32 37" fill-rule="evenodd" fill="#63d1bb" width="32" height="37" id="flower" x="66" y="62" xmlns="http://www.w3.org/2000/svg"><path d="M11.6 1.5c-.3.8-1.4 1.5-2.5 1.5-3.7 0-4.9 2.5-4.7 9.5.2 6.7 1.2 8.4 4.6 8.5.8 0 2.1.9 2.8 2 1.6 2.6 6.8 2.7 8.1.1.6-1 2.4-2.1 4-2.4 3.3-.7 5.3-4.9 3.3-6.9-.8-.8-.8-1.7-.1-3 1.8-3.3.2-6.8-3.2-7.5-1.7-.3-3.3-1.2-3.6-1.9-.7-2-7.9-1.8-8.7.1zm6.8 8.1c1.9 1.8 1.9 2 .6 4.5-1.7 3.1-7 1.8-7-1.7C12 11 14.7 8 16 8c.5 0 1.6.7 2.4 1.6z"/><path d="M0 23.7C0 31 7.3 37 16 37s16-6 16-13.3c0-2.3-.4-2.7-2.7-2.7-3.7 0-9 3.4-11.1 7-.9 1.6-1.9 3-2.2 3-.3 0-1.3-1.4-2.2-3-2.1-3.6-7.4-7-11-7-2.4 0-2.8.4-2.8 2.7z"/></svg><svg viewBox="0 0 33 28" fill-rule="evenodd" fill="#63d1bb" width="33" height="28" id="heart" x="166" y="66" xmlns="http://www.w3.org/2000/svg"><path d="M2.6 2.1C-.8 4.8-1 11.6 2.1 16.7 4.9 21.2 13.5 28 16.4 28c3.1 0 9.9-5.1 13.6-10.2 3.9-5.4 4.2-12.3.7-15.6-3-2.8-9.5-3-12.3-.4-1.9 1.8-2 1.8-3.8 0C11.9-.7 6-.5 2.6 2.1z"/></svg><svg viewBox="0 0 40 62" fill-rule="evenodd" fill="#149080" width="40" height="62" id="lamp" x="66" xmlns="http://www.w3.org/2000/svg"><path d="M11.5.9l-6 .6-2.7 11c-2.9 12.1-3.4 16-1.7 14.9.6-.3 2.2-.1 3.5.7 2 1 2.8 1 4.9-.1 2-1.1 2.7-1.1 4 0 1.2 1 2.1 1 4.4 0 2.3-.9 3.3-.9 4.9.1 1.7 1 2.3 1 3.6 0C27.7 27 28.6 27 31 28c2.4 1 3.3 1 4.5 0 .8-.7 2.2-1 3-.6 2.1.8 2-1-1.2-14.7L34.7 1h-4.2c-2.3 0-6.2-.2-8.6-.4-2.4-.2-7.1-.1-10.4.3z"/><path d="M18.7 28.6c-1.6 1.6-.7 4.4 1.4 4.4 1.5 0 2-.5 1.7-2.2-.3-2.2-1.9-3.3-3.1-2.2zm-3.6 8.2c-1 1.8-.9 2.7 1.1 10.5.8 3.5 1.2 3.8 4 3.5 2.9-.3 3.3-.7 4.6-5.7.7-3 1.1-6.5.7-7.8-.5-2-1.2-2.3-5-2.3-3.3 0-4.7.5-5.4 1.8zM15 54.5c0 1.1 1.2 1.5 5 1.5s5-.4 5-1.5-1.2-1.5-5-1.5-5 .4-5 1.5zm-4.4 4c-1.2 3.2-.5 3.5 9.5 3.5 9.8 0 10 0 9.7-2.3-.3-2.1-.8-2.2-9.4-2.5-7.7-.2-9.3 0-9.8 1.3z"/></svg><svg viewBox="0 0 66 101" fill-rule="evenodd" fill="#63d1bb" width="66" height="101" id="map-pin" xmlns="http://www.w3.org/2000/svg"/><svg viewBox="0 0 33 32" fill-rule="evenodd" fill="#63d1bb" width="33" height="32" id="present" x="166" y="34" xmlns="http://www.w3.org/2000/svg"><path d="M5 2c-.8 1.4-.8 2.6 0 4 1 1.8.8 2-2 2s-3 .2-3 4v4h15.9l.4-3.8.4-3.7.1 3.7.2 3.8h16v-4c0-3.9-.1-4-3.6-4-3.1 0-3.5-.2-2.4-1.4.6-.8 1-2.5.8-3.8-.2-1.9-1-2.4-4.1-2.6-2.5-.2-4.5.2-5.7 1.3-1.5 1.4-1.8 1.4-3 0C13.1-.8 6.3-.5 5 2zm8.1 3.1c.7 1.4.6 1.9-.4 1.9-2.1 0-5.1-2.6-4.3-3.8.9-1.5 3.4-.4 4.7 1.9zm10 .1c-1.3 1-2.7 1.8-3.2 1.8-1.6 0-.9-1.9 1.3-3.4 3-2.1 4.7-.7 1.9 1.6zM2 25v7h14V18H2v7zm15 0v7h13V18H17v7z"/></svg><svg viewBox="0 0 47 27" fill-rule="evenodd" fill="#63d1bb" width="47" height="27" id="price" y="127" xmlns="http://www.w3.org/2000/svg"><path d="M.2 13.2l.3 13.3h46V.5L23.2.2-.1 0l.3 13.2zm42.8.3V24H4V3h39v10.5z"/><path d="M6 13.5V21h34V6H6v7.5zm20.4-2.9c2 2 2 3.8 0 5.9-2.1 2.1-5.3 1.6-7-1-1.2-1.8-1.1-2.4.2-4.3 1.8-2.6 4.6-2.8 6.8-.6z"/></svg><svg viewBox="0 0 54 23" fill-rule="evenodd" fill="#63d1bb" width="54" height="23" id="rocket" x="106" y="60.3" xmlns="http://www.w3.org/2000/svg"><path d="M2.2 3.2C3.6 5 5.8 6.7 7.1 7c1.6.4 2 .8 1.1 1.4-1.8 1.1-1.5 5.3.6 6.5 1.5.9 1.4 1-.9 1.1C5.6 16 0 20.5 0 22.3c0 .4 3.3.7 7.3.7 5.5 0 7.9-.5 10.2-2 2.3-1.5 4.7-2 10.1-2 10 0 13.7-.8 12.8-2.9-1-2.1-1-7.1 0-9.3 1-2.1-3.1-3.1-13-3.2-4.9-.1-7.9-.7-9.7-1.9C15.8.5 13 0 7.4 0H-.3l2.5 3.2zM42 8.6c-1 2.6-.4 7 1.1 8 1.3.8 10.9-3.7 10.9-5.1 0-1-8.5-5.5-10.5-5.5-.3 0-1 1.2-1.5 2.6z"/></svg><svg fill-rule="evenodd" fill="#149080" viewBox="0 0 60 60.3" width="60" height="60.3" id="toy" x="106" xmlns="http://www.w3.org/2000/svg"><path d="M23.8 1.1c-1 .5-1.8 1.6-1.8 2.3 0 1.4-2.8 2.7-9 4.3-2.1.5-3.9 1.7-4.5 3.1-.5 1.2-1.7 2.5-2.7 2.7-.9.3-2.1 1.2-2.7 1.9-.9 1 1.9 3.1 13 9.5l14 8.2L42.5 26c17.2-10 16.6-9.4 12.9-11.6-1.7-1-3.5-2.7-4-3.8-.5-1.2-2.4-2.4-4.4-2.9-6.2-1.6-9-2.9-9-4.3 0-.7-.9-1.8-1.9-2.4C33.6-.3 26-.3 23.8 1.1zM37 7.7c0 3.4-13.1 3.7-13.8.2-.2-1.1 1.2-1.4 6.8-1.4 4.7 0 7 .4 7 1.2zm-16.6 6.6c4.1-1.3 4.7-.2 1.4 2.1C18 19.1 9 17.8 9 14.7c0-1.2.7-1.2 3.9-.4 2.8.8 5 .8 7.5 0zm27 0c3-.9 3.6-.9 3.6.3 0 3.2-9 4.5-12.8 1.8-3.4-2.3-2.6-3.2 1.7-2.1 2.8.8 5 .8 7.5 0zM37 22.6c0 1.3-4.3 3.4-7 3.4s-7-2.1-7-3.4c0-.7 2.6-1.1 7-1.1s7 .4 7 1.1zM0 32.3v12.5l13.1 7.6c7.1 4.2 13.4 7.6 14 7.6.5 0 .9-5.2.9-11.9V36.2l-11.7-6.8c-6.5-3.7-12.8-7.4-14-8.2L0 19.8v12.5zm45.8-4L32 36.4v11.8c0 6.7.4 11.8.9 11.8.6 0 6.9-3.4 14-7.6L60 44.8V32.4c0-6.8-.1-12.4-.2-12.3-.2 0-6.5 3.7-14 8.2z"/></svg><svg viewBox="0 0 34 34" fill-rule="evenodd" fill="#63d1bb" width="34" height="34" id="yarn" x="166" xmlns="http://www.w3.org/2000/svg"><path d="M9.5 1c-.3.5-.3 1.6.1 2.2.5.9.2.8-1-.1C7.3 2 6.7 1.9 5.7 2.9 4.8 3.9 5.3 4.8 8 7c3.8 3.2 7 3.9 7 1.4 0-.8.4-1.3.8-1C17 8.1 25.1 2 24.4.9 23.7-.3 10.3-.3 9.5 1zm3.6 4.7c1.3 1.6 1.2 1.7-.3.4-1-.7-1.8-1.5-1.8-1.7 0-.8.8-.3 2.1 1.3zm.9 5.4C-.1 22.1-.1 22.2.9 23.9c.6 1 4.2-1.3 14.5-9.4C27.6 5 30.4 1.9 26.7 2c-.7.1-6.4 4.1-12.7 9.1zM2.7 6.4c-.8 2 5.9 7 8.1 6.1 1.4-.5 1-1.2-2.3-4.1-4.5-3.8-5.1-4-5.8-2zm14 8C1.5 26.4 1.1 26.7 3.4 27.6c1 .4 2.6-.1 3.9-1.2 1.9-1.7 1.9-1.6-.2.8-2.1 2.4-2.2 2.8-.8 3.4 1.1.4 4.5-1.6 10.2-6.1 4.7-3.6 8.5-6.2 8.5-5.7s1.6 2.2 3.6 3.7c2.8 2.1 3.8 2.5 4.7 1.5.9-.9.4-1.8-2.2-4-1.9-1.6-3.9-2.7-4.5-2.4-.6.3.8-1.2 3.1-3.3 3.2-2.8 4.1-4.2 3.4-5.3-.8-1.2-1.3-1.1-3.3.5l-2.3 2 2.3-2.6c2.1-2.5 2.1-4-.2-3.8-.6 0-6.4 4.2-12.9 9.3zm10.3-3c0 .2-1.9 1.9-4.2 3.6l-4.3 3.2 4-3.6c4-3.6 4.5-3.9 4.5-3.2zm-9 7c0 .2-1.9 1.9-4.2 3.6l-4.3 3.2 4-3.6c4-3.6 4.5-3.9 4.5-3.2zm-17.3-8c-.3.7 0 1.9.6 2.6.9 1 .9 1.1 0 .6-.9-.5-1.3.3-1.3 2.8 0 3.9.5 4.3 3.4 2.1 1.7-1.3 1.7-1.7.5-3.2-1.3-1.6-1.2-1.7.4-.4 1.4 1.1 2 1.2 3 .2.9-1 .6-1.8-1.8-3.7C2 8.6 1.4 8.5.7 10.4z"/><path d="M31.3 13.9c-2.9 2.4-2.8 3.2.2 5.4l2.5 1.8v-4.6c0-2.5-.1-4.5-.2-4.5-.2.1-1.3.9-2.5 1.9zm-8.6 6.8c-1.3 1.2-.7 2.1 3.5 5.2 3 2.2 4.5 2.8 5.2 2 .8-.7-.1-2.1-2.9-4.5-4.2-3.5-4.8-3.8-5.8-2.7zm-4.3 3.8c-.4.8-1.1 1.5-1.8 1.5-.6 0-2.7 1.4-4.6 3-2.9 2.5-3.2 3.1-2 4 1.9 1.2 12 1.3 13.9.1 1.3-.8 1.3-1.2.1-2.8-1.2-1.5-1.2-1.6 0-.6 1.6 1.5 5 1.7 5 .4 0-1.2-7.4-7.1-8.9-7.1-.7 0-1.4.7-1.7 1.5zm2.7 3.2c1.3 1.6 1.2 1.7-.3.4-1-.7-1.8-1.5-1.8-1.7 0-.8.8-.3 2.1 1.3z"/></svg></svg>