<?xml version="1.0" encoding="utf-8"?><svg xmlns="http://www.w3.org/2000/svg" xmlns:xlink="http://www.w3.org/1999/xlink"><symbol viewBox="0 0 27.059 25.132" id="cart" xmlns="http://www.w3.org/2000/svg"><defs><clipPath id="aa" clipPathUnits="userSpaceOnUse"><path d="M0 18.849h20.294V0H0z"/></clipPath></defs><g clip-path="url(#aa)" transform="matrix(1.33333 0 0 -1.33333 0 25.132)"><path d="M17.017 7.284H3.277l-.81 2.836h15.36zM15.364 1.5H4.93L3.707 5.784h12.88zm4.18 10.12h-3.15l-3.407 6.814a.751.751 0 01-1.342-.67l3.07-6.144H5.58l3.07 6.143a.75.75 0 01-1.341.671L3.903 11.62H.75a.75.75 0 010-1.5h.158l.855-2.99a.736.736 0 01-.316-.596c0-.396.309-.71.696-.739L3.799 0h12.697l1.656 5.795a.744.744 0 01.698.74c0 .248-.13.458-.317.595l.855 2.99h.157a.75.75 0 010 1.5"/></g></symbol><symbol viewBox="0 0 19.949 36.958" id="facebook" xmlns="http://www.w3.org/2000/svg"><defs><clipPath id="ba" clipPathUnits="userSpaceOnUse"><path d="M0 27.718h14.962V0H0z"/></clipPath></defs><g clip-path="url(#ba)" transform="matrix(1.33333 0 0 -1.33333 0 36.958)"><path d="M7.845 17.743c.117-.254.254-.486.414-.698.079-.022.203-.003.205-.1a10.315 10.315 0 013.096.299c0-.998-.271-1.733-.518-2.492-.662-.045-1.467-.3-1.958-.198-.276-.165-.372-.506-.62-.698-.05-.442.142-.495 0-.797-.201-.137-.055-.611-.205-.796v-1.496c.085-.281-.145-.258-.103-.497V6.782c-.085-.282.146-.258.103-.498v-2.99c.064-.27-.132-.791.103-.896-.071-.364-.413.02-.825-.1-.528-.122-.925-.37-1.547-.4.117.352.32.622.31 1.096.049.38-.365.312-.516.499.194.643.563 1.117.722 1.792.197.515.714 1.298.31 1.794-.523.106-.522-.293-.826-.398-.023-.077-.002-.196-.103-.2-.023-.076-.003-.196-.103-.198.01-.121-.151-.062 0 0 .023.078.002.197.103.199.023.077.002.197.103.199v.299c.368.575.669 1.214.826 1.993.19.28.283.656.412.997.156.262.34.869.104 1.195-.516-.033-.796-.295-.93-.697-.32.19.162.434.105.697.138.232.169.567.309.797.202.413.564 1.304 0 1.596-.438.023-.613-.207-.723-.498-.214-.192-.43-.383-.516-.698-.373.07-.142.726-.206 1.096-.067.52.122.9 0 1.196-.56.798-2.026.105-3.197.298-.108.307-.222.985-.103 1.196 1.045.088 2.478-.201 3.197.199.024.078.003.197.103.199.094.723-.271 1-.514 1.396.232.805.04 2.02.103 2.989.234.14.328.414.515.598.112.955.673 1.475.722 2.492-.274-.002-.608.055-.62-.2-.301.115-.381-.478-.514-.2-.113.542.246.627.308.998.599.418 1.212.82 1.857 1.196 1.74.244 4.648.449 6.086-.198.05-.617-.287-.854-.207-1.497H11.56c-1.092-.24-1.987-.671-2.991-.997-.241-.066-.277-.331-.516-.398-.036-.397-.225-.647-.311-.996-.08-1.44.132-2.596.102-3.986m3.817 4.783c1.027-.03 1.994 0 2.68.3.392.817.557 1.854.62 2.989-.19.014-.062.337-.207.399-.03.202-.278.195-.308.398-.278.165-.457.422-.723.598-.727.16-1.441.335-2.164.498-.85-.044-1.895.103-2.58-.1-2.62.04-3.997-1.12-5.26-2.391-.022-.078-.003-.197-.104-.2-.575-1.586-.125-3.62-.205-5.58.099-.436.108-.96.205-1.395-1-.296-2.212-.386-3.403-.5-.317-.322-.178-1.088-.206-1.692.085-.583.278-1.06.413-1.595.21-.193.596-.396.825-.498.065-.03.072-.082.103-.1.506-.267 1.45-.007 2.268-.1-.137-1.977.255-3.914 0-5.68.006-.326.294-.381.207-.797-.001-.962-.067-1.99.208-2.69-.288-.455-.497-.982-.415-1.794.122-.016.113-.157.104-.3-.074-.47.644-.174.516-.697.162-.456-.428-.184-.413-.498V.204c.53-.285 1.462-.181 2.268-.2.908.42 2.188.48 2.785 1.197.459-.235.916.014 1.239.2-.018.315.273.333.205.698-.004.328-.173.496-.103.896v2.889c-.206 2.293-.048 4.939-.31 7.176.889.105 1.918.075 2.58.398.357.452.377 1.23.515 1.895.177.225.22.583.206.996.19.213.069.729.104 1.096-.141.595-.168 1.299-.825 1.395-.884.235-2.043-.596-2.992-.3.049 1.135-.293 2.343 0 3.389.747.176 1.448.395 2.167.597"/></g></symbol><symbol viewBox="0 0 29.025 28.445" id="instagram" xmlns="http://www.w3.org/2000/svg"><defs><clipPath id="ca" clipPathUnits="userSpaceOnUse"><path d="M0 21.334h21.769V0H0z"/></clipPath></defs><g clip-path="url(#ca)" transform="matrix(1.33333 0 0 -1.33333 0 28.445)"><path d="M13.188 13.667c.21-.119.44-.217.605-.381.086-.219.245-.363.38-.529.059-.778.18-1.492.153-2.354-.258-.098-.44-.27-.684-.381-.78.006-1.357.212-1.896.457-.172.258-.357.504-.534.758V12.3c.17.184.32.39.457.607.227.127.507.201.454.608a.368.368 0 00-.075.228c.158-.045.244-.159.378-.228.323-.019.41.199.761.152m1.139-3.796c-.235.057-.146-.208-.38-.152.07.159.119.338.229.455.133-.019.171-.13.15-.303m-2.2-2.581c.033.109.065-.008.151 0-.019-.097-.15-.076-.152 0m-.759 2.885c-.04.038.054.096.076.076.04-.039-.055-.098-.076-.076m-.38 3.947c-.203-.258.041-.576.077-.836-.305.039-.573.888-.077.836m-1.67-2.125c.015.086.075.042.075 0-.014-.087-.075-.043-.075 0M8.86 9.946c.041.117.08.006.076-.075-.04-.117-.079-.005-.076.075m-.075.305c-.114.063-.11.244-.153.379.256.078.118-.236.153-.379m3.415 4.327c-.222.232-.675.234-.986.379-.697.038-1.222-.093-1.746-.228l-.91-.454c-.266-.166-.445-.418-.76-.532-.205-.224-.351-.51-.683-.607-.004-.223-.173-.282-.304-.379-.09-.115-.094-.312-.227-.381-.008-.12.035-.29-.077-.303.11-1.511.291-2.948.683-4.177.287-.623.976-.845 1.442-1.29.59-.296 1.328-.444 2.126-.531.278.052.553.106.911.076a5.09 5.09 0 012.81 1.442c.1.281.252.508.455.683-.254.671.293 1.098.455 1.596.002 1.344-.2 2.481-.607 3.415-.256.579-.92.752-1.366 1.139-.058.017-.15.003-.151.076-.268.131-.732.233-1.064.076m1.139 1.821c-.11-.046.006-.091 0 0m-2.81.608c.021-.021.115.037.076.077-.02.021-.115-.037-.076-.077m.533.38c-.316.073-.016-.228 0 0m2.276-.988c.534.049.75.416 1.215.532.284.298.784.381.988.759-.56-.023-.766-.399-1.216-.531-.284-.296-.75-.413-.987-.76m-2.276.988c.346.134.613.347.834.607a2.043 2.043 0 01-.834-.607m.834.607c.064-.014.072.03.077.076-.066.014-.072-.029-.077-.076m.077.076c.064-.014.07.031.075.076-.064.014-.072-.03-.075-.076m.075.076c.111.046-.007.092 0 0m.683.608c-.11-.047.007-.092 0 0m.684-.836c.726.158 1.18.591 1.746.911-.437-.018-.592-.32-.988-.379-.215-.216-.599-.26-.758-.532m1.746.911c.11.047-.008.092 0 0m-1.063.607c-.529-.154-1.018-.348-1.367-.682.484.198 1.06.306 1.367.682m0 0c.11.048-.009.092 0 0m5.845-3.719c-.639.12-1.233.284-1.898.379.073.333.8.01.988.227.384.223.295.921.303 1.519.034.347.116.643.078 1.063-.403.951-1.785.421-2.887.455-.225-.717-.47-1.799-.304-2.656.17-.49 1.026-.293 1.52-.456-.14-.332-.69-.058-.988-.076-.296.083-.707.052-.986.151-2.286-.077-4.285-.004-6.53-.151.117 1.247.063 2.465-.076 3.644h3.112c-.344-.364-.912-.506-1.29-.835-.44-.244-.86-.505-1.139-.911.25-.133.535.245.76.379.354.074.478.381.834.455.424.439 1.097.626 1.67.912a3.54 3.54 0 00.988-.076c1.282-.008 2.455-.127 3.795-.076.614-.145 1.45-.069 1.974-.304.107-.297.231-.579.304-.911.01-.996-.146-1.826-.227-2.732m-.38-11.16c-.109-.954-.158-1.968-.379-2.809-2.89-.123-6.019-.005-8.883-.153-.199-.045-.273.031-.228.228-.253 0-.258-.247-.532-.228.202.336.438.898.152 1.291-.797-.013-.797-.822-1.138-1.291-.685.052-1.137-.127-1.823-.075.181.705.75 1.021.911 1.745-.395.549-.989-.138-1.214-.455-.203-.481-.556-.81-.76-1.29h-.986c.238.468.49.925.76 1.366.17.511.624.741.681 1.367-.157.28-.419.029-.682 0-.123-.182-.273-.335-.38-.531-.232-.376-.5-.714-.684-1.14-.18-.208-.335-.003-.53-.227-.389-.271-.58-.736-.988-.987-.174.06.04.357.153.38.046.181-.096.55.075.607.064.367.212.648.38.911.118.742.521 1.199.683 1.898-.559-.099-.674-.643-.987-.987-.213-.446-.542-.773-.683-1.291-.174.131-.028.58-.076.836.122.586.298 1.119.38 1.746.132.22.172.535.228.834.168.209.046.61-.077.761-.226-.028-.374-.133-.455-.304-.192.032-.193-.506-.304-.304-.045 2.587-.45 4.813-.456 7.439.027.33-.182.424-.227.684a71.245 71.245 0 004.783-.228c-.089-.139-.199-.257-.304-.379-.144-.071-.226-.173-.379-.304-.604-1.653-.975-3.984-.607-6.15.228-.58.59-1.03.986-1.442.907-.485 1.635-1.149 2.506-1.671 1.701-.361 3.84-.369 5.541 0 .236.12.484.226.685.38 1.365 1.242 2.753 2.459 2.96 4.86v1.367c-.197 1.597-.688 2.905-1.747 3.643.331.22 1.1-.043 1.67-.076a5.78 5.78 0 01.685 0c.408.024.928.055 1.443 0 .144-.186.114-.544.228-.76-.062-1.683-.193-3.299-.153-5.087.103-.454.127-.986.229-1.441a16.93 16.93 0 00-.456-2.733M1.344 15.641v1.593c.196.185.396.365.608.533.295-.49.178-1.392.455-1.898-.276-.156-.751-.11-1.063-.228m-.076 3.264c.226.205.45.41.684.608-.022.122.07.131.076.227h.228c.102-.381-.26-.296-.304-.531.02-.122-.073-.131-.076-.227.02-.336.122-.588.076-.988-.27-.008-.276-.28-.608-.227.024.428-.134.674-.076 1.138m.456.759c-.034-.219-.326-.179-.38-.379-.214.17.084.468.38.379m.986.076c.029-.259-.438-.32-.378 0zm.684-3.72c.148.03.11-.345-.076-.228.04.062.079.124.076.228m.228 3.72c.033-.158-.052-.2-.076-.304-.175-.023-.084.219-.228.229.024.103.19.063.304.075m0-1.138c-.263-.054-.273.266-.153.379.263.054.272-.266.153-.379m-.228-2.05c.077.311.034.303.075.682.229-.012.26-.769-.075-.682m.152.987c-.204-.021-.216.534-.077.607.328-.006.249-.5.077-.607m.532 0c.006.108.012.214-.077.228-.072.733.13 1.415 0 1.973.25.155.769.042 1.139.077v-1.139c-.088-.064-.203-.101-.38-.076-.053-.281.325-.132.38-.304.008-.853-.056-1.777.152-2.429-.565.059-.906-.107-1.442-.076.097.612-.018 1.435.53 1.594-.01.141-.256.047-.302.152m2.353-1.216c.175.025.084-.218.228-.227-.01-.193-.284-.179-.38-.076.039.112.113.192.152.303m.152.229c-.058-.139-.082.045-.076.152.058.138.08-.046.076-.152m0 1.366c-.132.07-.168.237-.152.456.132-.07.168-.238.152-.456M6.43 19.74c.089.013.134-.016.152-.076.179-.253.009-.683-.076-.911-.174.179-.027.682-.076.987m.683-1.594c-.117.263-.067.692-.075 1.063-.007.284.277.278.303.531-.003.074-.092.059-.152.076.127.146.7.097.835 0 .132-.537-.355-.455-.531-.683.01-.168.322-.032.456-.076.029-.854-.06-1.496 0-2.202h-.456c-.007-.234.228-.226.456-.228-.06-.286.092-.363.075-.607-.226-.153-.716-.043-1.062-.076-.103.594.236 1.375.15 2.202m1.672-2.733c.757.153 1.48.341 2.428.304.71-.075 1.287-.282 1.898-.455.116-.184-.243-.547.153-.684v-.076c.059-.017.15-.002.152-.076.445-.035.793-.167 1.063-.379.45-.055.536-.476 1.138-.38-.091-.213-.084-.524-.075-.835.324-1.183.474-2.81.302-4.252-.164-.163-.215-.442-.302-.683-.311-.322-.482-.785-.836-1.062a1.08 1.08 0 00-.455-.533c-.116-.213-.206-.452-.457-.531-.297-.163-.577-.01-.834.077-.446-.162-.904-.312-1.214-.608-.817.096-1.65.175-2.43.304-.242.139-.487.273-.835.305a1.997 1.997 0 01-.836.455c-.101.127-.337.118-.455.228-.198.03-.23.227-.456.229-.118.412-.442.618-.531 1.061-.226.331-.308.805-.455 1.215-.043 1.434.09 2.692.379 3.796.346.591.779 1.094 1.138 1.67.249-.021.365.09.38.304.306-.053.434.072.684.075.255.074.266.391.456.531m12.98-6.225c-.012 2.395-.343 4.789-.302 7.135a37.944 37.944 0 01-.152 2.279c-.105.299-.111.699-.152 1.062-.26.17-.222.64-.456.836-.423.233-1.202.113-1.744.227-.658.026-1.254.115-1.9.152-1.935.101-3.973.076-5.996.076-2.001 0-3.954.145-5.695.379H3.166c-.097-.004-.105-.098-.227-.076-.6-.034-1.077-.188-1.595-.303-.21-.119-.421-.236-.683-.305-.136-.192-.513-.144-.607-.379-.186-.211.185-.451 0-.607v-.911c.174-.13.028-.58.075-.835v-.987c-.016-1.281.134-2.398.077-3.72.467-2.762.374-6.537.076-9.413.155-.579.363-1.106.455-1.746.256-.479.335-1.133.683-1.52C1.922.326 2.653.347 3.318.304 3.7.206 3.985.011 4.458 0 7.3.21 9.954.154 12.884.229c2.704-.241 5.802-.189 8.276.227.195.134.128.529.227.76-.055.385.207.449.228.759.133 2.392.165 4.787.15 7.213"/></g></symbol><symbol viewBox="0 0 197.4 96.944" id="logo-desktop" xmlns="http://www.w3.org/2000/svg"><defs><clipPath id="da" clipPathUnits="userSpaceOnUse"><path d="M0 72.708h148.05V0H0z"/></clipPath></defs><g clip-path="url(#da)" transform="matrix(1.33333 0 0 -1.33333 0 96.944)"><path d="M87.835 56.356a1.13 1.13 0 01-.134-.123c.072.312.149.623.229.934h.11c-.068-.27-.139-.541-.206-.811m55.33-15.046c-1.48-1.055-3.053-1.942-4.656-2.777.036 1.747-.12 3.465-.592 5.127.051.333.103.667.146 1.002.375 3.005.656 7.122-2.004 9.224-.334.265-1.248.035-1.922-.274a4.64 4.64 0 01-.496.415c-.082.242-.159.487-.229.735-.035.12-.168.188-.36.215.285.383.262.818-.419 1.092a18.59 18.59 0 01-1.143.413c-.067.072-.127.096-.172.058l-.005-.003c-.939.3-1.894.533-2.86.705.138.331.397.813.552 1 .132.157.28.3.43.439.061.057.124.111.187.165l.07.061.083.062c.38.288.846.865.221 1.202-.57.307-1.508.142-2.008-.238-.862-.655-1.625-1.379-2.09-2.361-2.01.169-4.05.155-6.08.078a.757.757 0 01.141.25c.184.585-.908.525-1.187.488a924.13 924.13 0 00-4.689-.604c1.367 3.773 3.083 8.578 1.001 12.264-1.189 2.106-3.906 2.579-6.098 2.652-2.436.081-4.898-.461-7.036-1.636-4.762-2.618-7.11-7.71-8.21-13.138-.497.657-2.3.425-2.644-.468-.125-.32-.23-.645-.328-.972a1.446 1.446 0 01-.345-.637c-.015-.056-.026-.111-.04-.167l-.197-.007c.02.104.041.207.064.31.147.109.247.232.28.366.574 2.296 1.156 4.588 1.95 6.82.267.756-2.513.399-2.806-.426a51.161 51.161 0 01-1.119-3.622c-.166-.078-.358-.187-.426-.326-.018-.034-.03-.07-.047-.104-.107.093-.27.151-.467.178v.959c0 .432-2.822.034-2.822-.757v-1.568a2.363 2.363 0 01-.473-.266c-.062-.057-.127-.114-.189-.172a.377.377 0 01-.12-.245c-.007-.026-.013-.053-.023-.078-.017-.022-.032-.046-.052-.066-.125-.128-.184-.335-.027-.467.191-.16.508-.167.738-.159.048.002.097.007.146.011v-.468c-.227.001-.45.003-.675.006l-.41.051c-.022.385-.677.452-1.352.328a.61.61 0 010 .148 23.606 23.606 0 00-.23 1.79c.237.079.472.18.681.313.158.102.327.224.327.43v.194c0 .18-.41.204-.499.208a2.84 2.84 0 01-.589-.041c-.075 1.305-.08 2.615-.08 3.925 0 .84-2.825.315-2.823-.757 0-1.786.007-3.57.192-5.343a2.495 2.495 0 01-.27-.009v1.532c0 1.045-1.297 1.22-2.147.809.313.262.488.622.37 1.039-.403 1.414-.778 2.827-.974 4.287-.188 1.394-3.017.677-2.824-.756.196-1.46.57-2.873.975-4.287.235-.828 1.338-.889 2.103-.51-.226-.196-.373-.452-.373-.76v-.63c-.188.098-.438.16-.769.16-1.057 0-1.67-.885-1.4-1.477-.164.027-.327.054-.49.083-.383 1.248-.687 2.514-.715 3.83-.02.942-1.27 1.049-2.108.672a.571.571 0 01-.049.168c-.385.804-.567 1.674-.78 2.533-.332 1.35-3.158.601-2.823-.756.157-.638.3-1.281.52-1.898l-.057-.014a2.651 2.651 0 01-.854-.387c-.832-.079-1.828-.565-1.752-1.208.058-.478.131-.953.21-1.427a116.32 116.32 0 00-1.64-.26 11.905 11.905 0 00-.618 2.443c-.13.924-1.555.854-2.332.26-.774 2.062-1.796 4.019-3.122 5.761-2.62 3.439-7.097 4.613-11.242 3.794-1.9-.376-3.735-1.184-5.043-2.646-1.21-1.353-1.352-3.089-1.17-4.805.158-1.493.61-4.005 1.584-5.976-.35.012-.709-.041-.949-.139a11.046 11.046 0 01-.833-.388 95.043 95.043 0 00-5.803.07c-4.179.194-8.3.86-12.497.742-.923-.026-1.534-.719-1.465-1.262-1.046-.502-1.733-1.315-2.143-2.287-1.732 1.15-3.479 2.266-5.335 3.211-.689.351-3.3-.707-2.285-1.224 1.84-.938 3.561-2.072 5.278-3.216.512-.341 1.32-.133 1.842.07.03.012.09.039.165.077-.306-1.44-.157-3.067.241-4.493a.565.565 0 01.172-.27 9.289 9.289 0 01-.007-1.015c0-.055 0-.109-.002-.165-.4-.189-.712-.48-.76-.839a37.38 37.38 0 01-.305-4.229c-.272-.199-.462-.469-.485-.798-.233-3.345.037-6.651.467-9.95.185-2.694.69-5.344 1.172-7.998.058-.416.113-.832.167-1.25-.265-1.133-.398-2.395-.237-3.482-.88-.171-1.729-.866-1.233-1.617.765-1.158 1.644-2.019 2.606-2.649-.633.103-1.42-.11-1.87-.555-.819-.809-1.716-1.531-2.534-2.339-.429-.424-.314-.935.29-1.078.65-.155 1.515.059 1.996.535.817.808 1.715 1.531 2.533 2.339.248.245.308.518.204.73 3.21-1.734 7.235-1.269 11.114-.942-.882-1.589-1.542-3.272-2.17-4.997-.262-.719 2.507-.373 2.801.435.61 1.676 1.237 3.344 2.103 4.896 3.741-.117 7.48-.122 11.215-.051.15-.182.416-.305.746-.336 3.27-.311 6.49.096 9.688.699 4.79.229 9.577.525 14.366.809 7.527.187 15.056.347 22.587.319.1-.108.204-.214.314-.317.272-.256.621-.345.98-.33a1.93 1.93 0 01.198-.019 69.72 69.72 0 002.141-.145c.156-.04.341-.059.56-.046h.004c.781-.066 1.563-.141 2.346-.208.172-.214.497-.342.792-.36 3.803-.25 7.612-.523 11.423-.703.14-.23.537-.34.82-.344 7.066-.06 15.277-2.804 21.56 1.736.5.361.271.877-.266.984a1.897 1.897 0 01-.325.034c.007.016.017.03.022.045a60.672 60.672 0 012.944 8.552c.366.198.633.494.647.86.05 1.189.187 2.406.371 3.638.166.885.313 1.772.441 2.661.387 2.169.806 4.367 1.018 6.541 2.28 1.147 4.538 2.335 6.622 3.819 1.566 1.117-.784 1.883-1.832 1.137"/><path d="M63.26 60.081c.128-.196.563-.217.754-.217.377 0 .759.083 1.106.225.404.166 1.1.56.77 1.07-.363.562-.61 1.19-.975 1.754-.127.196-.562.217-.754.217a2.914 2.914 0 01-1.105-.226c-.404-.165-1.101-.558-.77-1.069.363-.562.61-1.19.975-1.754M20.683 61.8c.216-.647 1.11-.647 1.648-.504.472.127 1.39.616 1.175 1.26-.208.624-.433 1.293-.893 1.78-.48.507-1.324.417-1.902.152-.412-.191-1.177-.84-.695-1.35.382-.405.478-.772.667-1.338m9.977-2.988c.843 0 3.073 1.276 1.186 1.276-.843 0-3.074-1.276-1.186-1.276m91.902 1.621c.346-.072.717-.032 1.055.06.32.085.699.233.941.476.355.355.728.73.961 1.178.105.198.174.4-.004.587-.188.197-.508.245-.764.251a2.69 2.69 0 01-1.105-.22c-.252-.106-.621-.294-.756-.553a3.08 3.08 0 00-.402-.572l-.196-.199c-.158-.158-.345-.365-.279-.614.064-.24.334-.349.549-.394m13.298-5.418c.632.061 1.396.246 1.895.662 1.319 1.102 2.602 2.248 3.623 3.642.288.393-1.05.243-1.12.23-.532-.099-1.315-.276-1.66-.746-.948-1.296-2.163-2.349-3.39-3.374-.498-.415.44-.434.653-.414m10.879-27.077h-4.872c-.616 0-1.476-.467-1.556-1.14-.09-.737.754-.921 1.304-.921h4.87c.617 0 1.476.469 1.558 1.139.09.739-.754.922-1.304.922M57.02 11.923c-.498-.08-1.412-.296-1.639-.831a34.581 34.581 0 01-1.364-3.897c-.21-.733 2.571-.333 2.798.452a34.56 34.56 0 001.364 3.896c.221.527-.967.412-1.159.38m4.582-2.591a3.893 3.893 0 01-1.03-.152 3.87 3.87 0 01-.967-.383c-.141-.084-.338-.199-.338-.39a3.075 3.075 0 00-.021-.346.755.755 0 00-.113-.272c-.064-.082-.108-.18.018-.253.196-.114.502-.083.712-.061.374.037.745.127 1.099.252.243.084.613.207.795.406.149.164.24.286.284.501.035.177.05.348.05.529-.001.166-.422.168-.49.169m55.051-3.676c-.354.686-3.043-.33-2.823-.758.844-1.637 1.938-3.12 2.923-4.676.435-.689 3.04.414 2.823.756-.983 1.555-2.08 3.04-2.923 4.678m4.092 2.338c-.294.588-1.066.563-1.624.414-.351-.094-1.485-.598-1.2-1.17l1.17-2.34c.294-.588 1.068-.56 1.624-.414.35.095 1.486.6 1.199 1.172l-1.17 2.338M5.668 29.602c-1.486-.358-3.006-.57-4.481-.975-.537-.146-1.342-.64-1.16-1.318.18-.675 1.128-.71 1.664-.561 1.476.403 2.995.615 4.482.975.54.129 1.338.65 1.16 1.317-.185.685-1.124.693-1.665.562m38.084 3c-.084 2.707-.515 5.396-.48 8.107.029 2.194.394 4.45-.362 6.555.047.238.097.477.14.716.196 1.056-3.3.497-3.848-.467-.347-.284-.524-.621-.378-.966.037-.087.07-.174.102-.262-.662-3.234-1.584-6.365-2.645-9.498-.406-1.2-.896-2.371-1.31-3.566-.587 1.114-1.18 2.215-1.658 3.408-1.386 3.464-2.636 6.966-4.326 10.3.192 1.543-3.232 1.38-3.907-.033-.816-1.71-.71-3.434-.442-5.262.303-2.06.356-4.086.381-6.167.048-4.011.361-8.015.421-12.027-.357-.397-.466-.89-.092-1.388.163-.217.365-.385.576-.554.913-.73 3.533-.107 3.528 1.284-.014 4.16-.314 8.31-.424 12.47-.01.408-.018.814-.024 1.223l.173-.438c.646-1.62 1.322-3.191 2.205-4.697.876-1.49 1.315-3.092 1.82-4.718-.19-.22-.306-.467-.235-.715-.04-.182.071-.294.253-.364.645-.551 1.858-.277 2.532.007.29.122.566.263.834.427.348.215.891.687.735 1.17l-.088.28c.475 1.282.716 2.613.975 3.966.275 1.44.79 2.806 1.307 4.172.053-.625.107-1.25.157-1.873.206-2.576.033-5.117.008-7.695-.009-.854.054-1.65.221-2.485.068-.345.37-1.824.283-1.904-.617-.57-.438-1.268.39-1.45.922-.202 2.1.106 2.794.75 1.21 1.116.638 2.87.364 4.28-.46 2.36.093 5.008.02 7.414m8.439-.683c-.074 2.007-.77 3.897-.78 5.925-.012 2.327.182 4.635-.157 6.949-.107.732-4.093-.101-3.953-1.06.312-2.128.2-4.267.161-6.411-.037-2.063.472-3.933.737-5.958.271-2.073-.085-4.195.15-6.271.11-.971.758-2.768.09-3.612-.424-.538 1.482-.344 1.568-.331.775.144 1.81.396 2.324 1.049.66.835.198 2.448.054 3.387-.32 2.08-.115 4.236-.194 6.333M68.67 35.27c-2.08 2.808-5.943.786-8.64 1.553-1.39.397-1.407 2.293-1.403 3.428.004 1.439-.115 2.757-.276 4.185-.119 1.06-.024 2.14.753 2.93.143.146.866.339.817.342.356.062.683.077 1.077.093 1.562.068 4.654-.234 4.056-2.506-.269-1.02 3.63-.435 3.913.643 1.224 4.64-7.352 3.749-9.774 3.106-2.23-.591-4.692-1.861-4.819-4.438-.062-1.23.274-2.4.328-3.62.061-1.403-.2-2.801.291-4.154 1.092-3.01 5.57-1.59 7.85-1.761 3.88-.29 2.721-5.52 2.771-7.955.027-1.301 1.192-3.461.213-4.55-.6-.667-2-.706-2.817-.774-.82-.07-2.22-.315-2.768.465-1.002 1.43.093 3.834-.12 5.474-.123.934-4.105.097-3.954-1.06.346-2.65-1.412-6.198 2.424-6.653 2.464-.293 5.238.162 7.568.936 1.207.4 2.328.95 3.272 1.81 1.045.948.701 2.368.421 3.578-.682 2.944.74 6.333-1.183 8.928m17.484.189c-.121 3.812-.695 7.582-.711 11.4-.008 1.989-4 1.317-3.992-.346.015-3.641.5-7.232.687-10.863l.012-.222c-1.967.018-3.934-.179-5.904-.248.203 4.675-.617 9.311-.438 13.983.022.587-3.91.091-3.953-1.059-.172-4.516.593-8.997.457-13.514-.064-2.154-.247-4.303-.262-6.46-.008-1.105.173-2.204.332-3.293.147-1.008.488-2.353.183-3.349-.238-.779 3.594-.293 3.897.701.549 1.793-.224 4.077-.408 5.892-.177 1.74-.041 3.53.084 5.296 2.047.131 4.096.3 6.135.012.09-1.391.197-2.78.324-4.172.107-1.168.182-2.334.199-3.507.016-1.028.143-2.519-.223-3.492-.78-2.075 3.179-1.905 3.757-.368.71 1.887.507 4.237.386 6.22-.152 2.468-.482 4.92-.562 7.389m17.088-4.514c-.948 2.783-2.395 5.224-3.65 7.868 1.01 1.967 2.037 3.935 2.96 5.942.838 1.824 1.46 3.854 3.107 5.14.579.45.555.903-.26.96-.882.06-2.081-.195-2.794-.75-1.498-1.168-2.447-2.587-3.228-4.307a162.468 162.468 0 00-2.94-6.13c-.074-.149-.15-.298-.226-.448-.494-.318-.792-.769-.645-1.277-.8-1.578-1.614-3.146-2.521-4.653-.302 5.584-.963 11.162-1.161 16.751-.045 1.281-4.007.484-3.953-1.059.246-6.93 1.23-13.846 1.299-20.775l-.05-.05c-.302-.312-.19-.499.054-.608a61.45 61.45 0 00-.211-5.302c-.477-.752.467-1.15 1.094-1.15h.098c.746 0 2.648.354 2.742 1.377.193 2.118.254 4.234.234 6.35 1.605 1.73 2.916 3.662 4.093 5.685.766-1.494 1.495-3 2.007-4.625.868-2.765 2.32-5.307 3.159-8.086.55-1.822 4.497-.746 3.952 1.06-.84 2.776-2.224 5.344-3.16 8.087m8.965 4.828c-.103 1.258-.22 2.514-.305 3.777-.162 2.352.117 5.635 2.31 7.063.586.383 1.69.317 2.376.442.98.176 1.974.393 2.855-.192 1.221-.81.92-3.69.917-4.913-.001-2.025.212-4.038.315-6.058a13.82 13.82 0 00-1.699-.078c-2.307.056-4.584.418-6.769-.04m14.752-.152c-.212.84-1.385.857-2.292.776-.014.34-.022.678-.036 1.017-.127 2.686-.168 5.427-.396 8.105-.21 2.48-1.599 3.368-4.007 3.275-2.439-.092-5.278-.53-7.55-1.416-2.633-1.023-4.097-2.96-4.602-5.732-.556-3.04.241-6.275.377-9.33.155-3.536.066-7.079.062-10.615 0-.579 3.952-.032 3.953 1.06.004 2.8.043 5.601 0 8.401a52.98 52.98 0 01-.104 2.465c1.382.6 3.721-.012 5.097-.142 1.117-.106 2.188.166 3.272.294.022-2.333.11-4.679.205-7.009.05-1.193.481-3.562-.356-4.55-.44-.522 1.493-.348 1.567-.335.802.148 1.778.405 2.325 1.051.96 1.13.461 3.824.405 5.172-.079 1.93-.103 3.86-.144 5.79 1.166.151 2.442.864 2.224 1.723M48.77 47.531a3.193 3.193 0 011.49.53c.088.072.174.145.26.218.524.338.98.834.734 1.373-.508 1.115-.427 2.251-.42 3.445.007.966-.972 1.257-1.797 1.185-.728-.064-2.187-.586-2.193-1.534-.008-1.002-.073-2.034.11-3.02-.05-.113-.076-.24-.106-.358-.055-.214.017-.424.145-.595l.001-.135c.006-.113.012-.226.016-.338a.908.908 0 01.433-.535c.39-.236.884-.279 1.328-.236"/></g></symbol><symbol viewBox="0 0 135.487 45.408" id="logo-footer" xmlns="http://www.w3.org/2000/svg"><defs><clipPath id="ea" clipPathUnits="userSpaceOnUse"><path d="M0 34.056h101.615V0H0z"/></clipPath></defs><g clip-path="url(#ea)" transform="matrix(1.33333 0 0 -1.33333 0 45.408)"><path d="M19.135 12.56c-.083 2.683-.51 5.347-.475 8.035.028 2.175.389 4.41-.36 6.495.047.237.096.473.14.71.194 1.045-3.27.492-3.813-.464-.344-.28-.52-.614-.375-.955.037-.087.07-.174.102-.261-.656-3.204-1.57-6.306-2.621-9.412-.403-1.188-.89-2.35-1.298-3.533-.582 1.104-1.17 2.194-1.643 3.377-1.373 3.433-2.612 6.902-4.287 10.206.19 1.529-3.203 1.368-3.872-.031-.81-1.694-.705-3.404-.44-5.215.3-2.042.354-4.05.379-6.111.047-3.976.358-7.944.417-11.92-.354-.394-.461-.88-.091-1.374.162-.216.362-.382.57-.55.905-.723 3.5-.106 3.497 1.273-.015 4.122-.312 8.236-.421 12.357-.011.403-.017.807-.024 1.21l.172-.434C5.332 14.36 6 12.8 6.877 11.31 7.744 9.831 8.18 8.245 8.68 6.632c-.19-.217-.303-.462-.233-.708-.04-.179.07-.292.25-.36.64-.548 1.842-.275 2.51.007.287.121.56.26.826.424.346.211.884.678.729 1.158-.03.093-.058.186-.086.28.469 1.27.709 2.588.965 3.93.272 1.427.782 2.78 1.295 4.132.052-.619.106-1.238.156-1.855.204-2.554.033-5.072.007-7.627-.008-.847.054-1.633.219-2.46.068-.344.367-1.808.28-1.888-.61-.564-.432-1.256.386-1.436.915-.2 2.08.105 2.77.742 1.198 1.107.63 2.845.36 4.241-.453 2.342.094 4.964.02 7.348m8.365-.675c-.074 1.988-.765 3.862-.774 5.872-.011 2.305.181 4.593-.155 6.886-.106.725-4.056-.1-3.917-1.05.308-2.11.197-4.229.159-6.354-.037-2.044.468-3.897.73-5.904.269-2.054-.084-4.157.15-6.213.109-.962.75-2.743.089-3.58-.42-.532 1.469-.342 1.553-.326.769.141 1.793.391 2.304 1.038.653.828.196 2.425.053 3.357-.317 2.06-.115 4.195-.192 6.274m16.329 3.32c-2.062 2.784-5.889.78-8.56 1.54-1.378.392-1.396 2.27-1.393 3.396.004 1.426-.113 2.732-.273 4.146-.118 1.052-.024 2.12.746 2.904.142.144.86.336.81.339.354.06.676.075 1.067.092 1.55.067 4.613-.231 4.02-2.483-.267-1.01 3.596-.431 3.877.637 1.213 4.597-7.284 3.714-9.686 3.077-2.21-.585-4.649-1.844-4.776-4.397-.06-1.22.273-2.38.325-3.587.061-1.39-.198-2.776.29-4.118 1.081-2.982 5.52-1.576 7.777-1.745 3.845-.287 2.696-5.468 2.747-7.883.028-1.288 1.181-3.43.211-4.507-.595-.662-1.982-.7-2.792-.768-.813-.068-2.2-.312-2.742.46-.993 1.419.091 3.8-.12 5.426-.12.924-4.067.095-3.918-1.05C31.781 4.057 30.04.539 33.84.088c2.442-.29 5.192.16 7.5.928 1.196.397 2.307.942 3.243 1.793 1.035.94.695 2.348.417 3.547-.676 2.918.732 6.279-1.172 8.849m17.327.189c-.122 3.777-.69 7.513-.706 11.297-.008 1.97-3.963 1.305-3.957-.343.016-3.608.497-7.166.683-10.764l.012-.22c-1.949.017-3.899-.178-5.852-.246.201 4.633-.612 9.227-.435 13.857.022.582-3.873.09-3.917-1.05-.17-4.474.587-8.914.453-13.391-.064-2.136-.245-4.264-.26-6.402-.007-1.094.172-2.182.33-3.262.145-1 .483-2.331.181-3.32-.237-.771 3.56-.29 3.862.696.544 1.778-.222 4.038-.405 5.838-.175 1.725-.039 3.499.083 5.248 2.03.13 4.06.298 6.08.012.09-1.378.196-2.754.322-4.134.106-1.157.18-2.314.196-3.475.016-1.02.142-2.496-.22-3.461-.773-2.057 3.15-1.89 3.722-.364.703 1.87.503 4.198.383 6.163-.149 2.444-.477 4.874-.555 7.32m16.932-4.473c-.94 2.757-2.373 5.176-3.616 7.796 1 1.95 2.017 3.9 2.93 5.89.832 1.806 1.448 3.817 3.08 5.091.575.447.55.895-.254.951-.875.061-2.064-.192-2.77-.742-1.485-1.158-2.426-2.563-3.2-4.268a161.85 161.85 0 00-2.914-6.075c-.074-.147-.15-.295-.223-.443-.491-.315-.785-.762-.64-1.266-.79-1.564-1.6-3.117-2.498-4.61-.3 5.533-.955 11.06-1.15 16.6-.045 1.27-3.972.48-3.917-1.05.242-6.868 1.218-13.719 1.286-20.587-.016-.017-.031-.034-.048-.05-.301-.309-.19-.494.052-.602a60.763 60.763 0 00-.21-5.255c-.471-.745.464-1.138 1.085-1.138h.096c.74 0 2.626.35 2.719 1.364.19 2.1.25 4.196.232 6.291 1.59 1.715 2.889 3.63 4.055 5.635.759-1.48 1.482-2.972 1.988-4.582.86-2.74 2.3-5.26 3.13-8.014.546-1.806 4.458-.738 3.918 1.05-.83 2.751-2.205 5.295-3.131 8.013m8.885 4.786c-.103 1.245-.217 2.49-.303 3.743-.16 2.331.117 5.583 2.29 7 .58.378 1.675.314 2.354.437.97.175 1.956.388 2.829-.19 1.21-.802.913-3.657.912-4.869-.003-2.006.207-4.002.309-6.004a13.757 13.757 0 00-1.683-.076c-2.286.054-4.543.414-6.708-.04m14.619-.152c-.21.832-1.372.85-2.272.77-.012.336-.02.672-.036 1.006-.125 2.662-.165 5.38-.392 8.032-.21 2.458-1.585 3.338-3.971 3.247-2.416-.092-5.23-.528-7.483-1.404-2.607-1.013-4.058-2.934-4.558-5.68-.55-3.014.239-6.219.373-9.247.154-3.503.066-7.013.062-10.518 0-.574 3.916-.032 3.917 1.05.003 2.775.043 5.55 0 8.325a50.813 50.813 0 01-.102 2.444c1.369.593 3.687-.012 5.05-.14 1.108-.106 2.169.165 3.245.29.02-2.312.107-4.634.202-6.944.049-1.184.476-3.53-.354-4.51-.436-.516 1.48-.343 1.555-.33.793.146 1.76.401 2.303 1.04.949 1.12.456 3.79.4 5.127-.077 1.91-.1 3.823-.14 5.737 1.153.15 2.415.856 2.2 1.705M24.108 27.355a3.16 3.16 0 011.477.524l.256.217c.52.335.972.827.728 1.361-.503 1.105-.422 2.231-.415 3.414.006.958-.963 1.246-1.781 1.174-.723-.064-2.168-.58-2.175-1.52-.006-.993-.071-2.016.109-2.992-.047-.113-.074-.239-.104-.356-.055-.212.016-.42.142-.59 0-.044.003-.089.003-.134l.014-.335a.905.905 0 01.429-.53c.387-.233.878-.275 1.317-.233"/></g></symbol><symbol viewBox="0 0 114.119 46.712" id="logo-mobile" xmlns="http://www.w3.org/2000/svg"><defs><clipPath id="fa" clipPathUnits="userSpaceOnUse"><path d="M0 35.034h85.589V0H0z"/></clipPath></defs><g clip-path="url(#fa)" transform="matrix(1.33333 0 0 -1.33333 0 46.712)"><path d="M4.18 8.733c-.014 3.472-.262 6.938-.356 10.41-.008.34-.015.68-.02 1.02.05-.122.097-.243.146-.365.54-1.35 1.102-2.663 1.838-3.919.732-1.245 1.1-2.58 1.521-3.94-.159-.182-.256-.39-.196-.596-.034-.15.058-.245.212-.305.537-.46 1.55-.232 2.113.008.242.101.473.22.696.355.29.181.744.572.613.977l-.072.235c.397 1.068.598 2.18.814 3.308.23 1.206.66 2.344 1.091 3.485.043-.52.088-1.044.13-1.567.173-2.147.028-4.269.007-6.42a9.911 9.911 0 01.184-2.077c.058-.287.31-1.52.235-1.588-.516-.475-.366-1.06.326-1.21.772-.169 1.753.087 2.333.625 1.01.933.531 2.396.304 3.572-.385 1.972.077 4.18.017 6.19-.07 2.26-.43 4.502-.4 6.768.024 1.831.328 3.714-.303 5.471.04.2.08.398.118.6.163.878-2.754.413-3.212-.392-.29-.236-.438-.519-.314-.806.031-.07.057-.147.084-.219-.552-2.699-1.32-5.313-2.207-7.93-.339-1-.748-1.976-1.095-2.977-.49.933-.986 1.85-1.383 2.847-1.156 2.89-2.2 5.813-3.61 8.595.16 1.29-2.698 1.154-3.262-.026-.682-1.426-.592-2.866-.369-4.393.254-1.72.298-3.41.32-5.147.038-3.347.3-6.69.351-10.04-.298-.33-.389-.74-.078-1.158.136-.182.306-.322.483-.46.756-.612 2.946-.093 2.941 1.07m18.197 18.371c-.09.613-3.416-.084-3.3-.885.258-1.776.166-3.56.135-5.35-.03-1.723.393-3.284.615-4.972.226-1.732-.07-3.502.126-5.235.09-.812.632-2.312.074-3.018-.354-.447 1.238-.285 1.31-.275.646.12 1.51.331 1.938.875.552.698.165 2.043.045 2.828-.266 1.733-.096 3.536-.162 5.285-.06 1.676-.643 3.254-.65 4.946-.01 1.946.153 3.87-.131 5.802M25.5 20.46c.91-2.514 4.648-1.327 6.55-1.471 3.239-.239 2.273-4.607 2.314-6.64.023-1.085.995-2.889.179-3.798-.502-.556-1.67-.589-2.352-.647-.686-.056-1.853-.26-2.311.39-.836 1.194.077 3.2-.102 4.568-.102.781-3.424.08-3.3-.883.292-2.211-1.177-5.175 2.024-5.556 2.059-.244 4.372.136 6.317.783 1.008.334 1.944.792 2.732 1.509.872.794.585 1.979.35 2.987-.568 2.458.618 5.289-.986 7.454-1.738 2.345-4.962.658-7.212 1.297-1.161.33-1.175 1.911-1.17 2.861.002 1.202-.097 2.301-.231 3.491-.1.886-.021 1.787.628 2.447.119.121.722.283.68.286.299.051.573.063.9.076 1.304.056 3.886-.195 3.386-2.091-.225-.851 3.029-.364 3.266.537 1.02 3.874-6.138 3.13-8.16 2.592-1.862-.494-3.915-1.554-4.023-3.704-.051-1.027.23-2.006.275-3.022.053-1.169-.165-2.337.246-3.466m14.455-1.87c-.053-1.8-.208-3.593-.22-5.393-.006-.92.146-1.841.279-2.75.122-.84.407-1.963.152-2.795-.198-.647 3-.243 3.254.586.458 1.498-.188 3.403-.341 4.918-.147 1.452-.032 2.946.072 4.42 1.708.11 3.418.249 5.119.01.077-1.162.164-2.32.273-3.482.088-.976.15-1.95.164-2.93.015-.855.12-2.098-.185-2.912-.651-1.732 2.656-1.59 3.136-.308.592 1.577.423 3.537.323 5.195-.13 2.058-.404 4.106-.47 6.166-.101 3.182-.58 6.329-.593 9.515-.007 1.66-3.338 1.099-3.331-.288.012-3.04.417-6.037.57-9.068a2.22 2.22 0 00.01-.185c-1.64.016-3.28-.15-4.928-.207.17 3.903-.514 7.772-.364 11.672.019.492-3.264.077-3.3-.883-.145-3.771.493-7.511.38-11.281m14.08-5.371c-.254-.26-.16-.414.045-.506a50.752 50.752 0 00-.178-4.424c-.396-.63.39-.96.912-.96h.082c.622 0 2.209.293 2.289 1.149.163 1.768.21 3.535.197 5.299 1.337 1.446 2.433 3.056 3.416 4.748.639-1.248 1.247-2.505 1.675-3.862.725-2.31 1.938-4.43 2.637-6.75.459-1.521 3.754-.621 3.298.885-.701 2.319-1.856 4.462-2.638 6.75-.791 2.322-1.998 4.36-3.046 6.568.845 1.64 1.7 3.284 2.47 4.96.698 1.525 1.219 3.216 2.594 4.289.483.376.464.755-.216.8-.737.055-1.738-.158-2.334-.624-1.25-.973-2.042-2.158-2.694-3.594a137.075 137.075 0 00-2.455-5.118l-.188-.373c-.412-.263-.66-.641-.54-1.064-.665-1.317-1.346-2.627-2.103-3.885-.252 4.66-.803 9.317-.97 13.983-.035 1.069-3.344.404-3.296-.885.204-5.785 1.024-11.557 1.083-17.34-.013-.017-.027-.032-.04-.046m24.872 6.393c-1.928.046-3.828.35-5.651-.036-.086 1.051-.183 2.098-.255 3.154-.134 1.962.098 4.702 1.927 5.896.493.318 1.414.263 1.985.368.819.147 1.647.328 2.384-.16 1.017-.676.768-3.08.765-4.1-.002-1.69.177-3.37.262-5.059a11.866 11.866 0 00-1.417-.063m6.662-.162c-.177.701-1.155.716-1.914.648-.01.282-.017.567-.03.85-.106 2.24-.138 4.53-.328 6.764-.176 2.07-1.335 2.811-3.346 2.734-2.035-.077-4.404-.443-6.302-1.183-2.197-.852-3.421-2.47-3.841-4.784-.464-2.539.202-5.238.314-7.789.13-2.95.056-5.909.054-8.859 0-.485 3.296-.028 3.296.884.004 2.337.038 4.675 0 7.013-.01.69-.043 1.374-.085 2.057 1.156.5 3.107-.01 4.255-.118.933-.089 1.827.137 2.733.244.016-1.946.09-3.905.17-5.85.042-.998.402-2.975-.297-3.8-.368-.435 1.249-.288 1.309-.28.668.124 1.483.338 1.94.877.8.942.384 3.192.338 4.316-.066 1.612-.086 3.223-.121 4.834.972.131 2.037.727 1.855 1.442M18.7 30.929a.578.578 0 01.12-.497l.002-.114.013-.283a.762.762 0 01.362-.446c.325-.196.737-.232 1.108-.196.44.04.882.19 1.246.439l.215.183c.439.282.819.697.613 1.146-.424.932-.36 1.88-.35 2.875.005.808-.811 1.05-1.501.99-.608-.054-1.827-.49-1.831-1.28-.007-.836-.061-1.698.092-2.522-.041-.092-.065-.198-.088-.295M80.278 1.745c-1.558.585-3.283.615-4.851.787-1.602.17-3.245.41-4.883.563-1.637-.053-3.31-.028-4.972-.129l-4.88-.268c-6.487-.289-13-.253-19.517-.107-6.516.123-13.044.476-19.63.453a227.325 227.325 0 01-9.862-.25c-1.632-.283-3.24-.5-4.904-.913-1.615-.4-3.145-.907-4.794-1.048C3.608.471 5.325.541 6.947.536c1.579-.01 3.243-.143 4.872-.23 3.229.17 6.487.245 9.733.256C28.04.587 34.567.233 41.118.112c6.548-.147 13.114-.186 19.682.11l4.908.268c1.602.071 3.198.127 4.829.067 1.628.15 3.253.331 4.918.533 1.664.238 3.219.627 4.854.51l.074-.007.006.054c.022.178-.04.324-.04.48-.035-.128-.04-.265-.071-.382"/></g></symbol><symbol viewBox="0 0 149.852 61.45" id="logo-tablet-" xmlns="http://www.w3.org/2000/svg"><defs><clipPath id="ga" clipPathUnits="userSpaceOnUse"><path d="M0 46.087h112.389V0H0z"/></clipPath></defs><g clip-path="url(#ga)" transform="matrix(1.33333 0 0 -1.33333 0 61.45)"><path d="M110.228 4.207c4.394-.868.843 35.858.147 38.311-1.96 6.569-26.676 2.143-32.18 1.717-12.722-.987-25.188.96-37.611.376-6.205-.293-34.853 1.813-37.52-1.987-5.046-7.207-2.65-25.797-1.275-35.075-4.043-.779 2.308-4.155 3.137-4.898 6.315-2.192 16.359.219 23.008-.395C43.367.784 59.73 4.45 75.208 3.211c4.497-1.144 9.604-1.019 14.224-1.239 3.414-5.573 19.664 2.461 20.796 2.235-.101.02.507-.101 0 0"/><path d="M26.059 21.678c-.08 2.546-.484 5.074-.451 7.624.027 2.064.37 4.185-.341 6.164.044.224.09.448.132.674.184.992-3.103.467-3.62-.44-.324-.266-.491-.584-.353-.908.034-.081.065-.164.096-.247-.623-3.04-1.49-5.985-2.487-8.931-.383-1.128-.843-2.23-1.232-3.354-.554 1.049-1.111 2.084-1.56 3.206-1.303 3.257-2.48 6.55-4.07 9.685.182 1.45-3.038 1.298-3.673-.031-.767-1.607-.668-3.23-.415-4.948.285-1.938.334-3.842.358-5.8.045-3.771.34-7.537.396-11.31-.335-.372-.438-.835-.087-1.305a3 3 0 01.542-.52c.859-.687 3.323-.101 3.318 1.207-.013 3.91-.295 7.815-.4 11.726-.01.383-.015.766-.021 1.15.055-.138.108-.276.163-.412.607-1.522 1.243-3.001 2.073-4.416.823-1.401 1.236-2.908 1.71-4.437-.178-.206-.286-.44-.22-.674-.037-.17.067-.275.239-.342.606-.518 1.747-.26 2.38.008.273.114.533.247.785.402.327.202.838.644.69 1.099l-.082.265c.447 1.204.674 2.456.917 3.727.259 1.357.742 2.64 1.23 3.925.048-.588.1-1.177.147-1.763.193-2.421.03-4.811.008-7.236-.01-.803.05-1.55.207-2.337.064-.324.348-1.714.267-1.79-.581-.535-.413-1.192.365-1.363.868-.191 1.975.1 2.629.705 1.137 1.05.599 2.699.342 4.024-.433 2.22.088 4.709.018 6.973m7.936-.643c-.069 1.888-.725 3.666-.734 5.573-.01 2.188.172 4.358-.147 6.534-.1.69-3.848-.094-3.717-.996.293-2.002.187-4.013.151-6.029-.035-1.94.444-3.699.694-5.603.254-1.95-.08-3.945.141-5.897.102-.913.712-2.603.084-3.398-.399-.505 1.394-.323 1.474-.31.73.136 1.701.372 2.186.987.62.785.186 2.3.051 3.185-.3 1.956-.109 3.983-.183 5.954m15.497 3.153c-1.957 2.64-5.589.739-8.125 1.46-1.308.373-1.323 2.156-1.319 3.224.003 1.353-.109 2.592-.26 3.935-.112.997-.023 2.011.708 2.754.135.138.815.319.768.323.335.058.643.072 1.013.088 1.47.063 4.377-.221 3.815-2.357-.253-.958 3.412-.41 3.68.605 1.15 4.364-6.915 3.526-9.193 2.92-2.097-.556-4.41-1.75-4.53-4.173-.059-1.156.256-2.258.308-3.404.057-1.32-.189-2.635.273-3.907 1.027-2.831 5.238-1.495 7.381-1.656 3.65-.272 2.56-5.191 2.607-7.481.025-1.224 1.122-3.255.201-4.278-.566-.627-1.88-.664-2.649-.73-.773-.063-2.089-.295-2.604.44-.942 1.344.088 3.605-.114 5.146-.114.879-3.858.09-3.717-.995.325-2.492-1.328-5.83 2.28-6.258 2.317-.275 4.925.153 7.117.88 1.135.377 2.188.895 3.077 1.702.982.892.658 2.228.396 3.366-.642 2.768.694 5.956-1.113 8.396m16.442.178c-.114 3.584-.653 7.129-.67 10.719-.006 1.87-3.761 1.239-3.753-.324.014-3.425.472-6.801.646-10.216l.01-.21c-1.848.018-3.698-.168-5.551-.232.19 4.396-.58 8.756-.411 13.149.02.553-3.677.086-3.718-.995-.162-4.247.557-8.461.43-12.71-.061-2.025-.233-4.045-.247-6.073-.007-1.04.163-2.074.312-3.098.138-.947.459-2.212.172-3.15-.223-.731 3.38-.275 3.666.66.515 1.687-.211 3.834-.383 5.54-.167 1.637-.04 3.32.078 4.982 1.925.123 3.852.28 5.77.01.084-1.307.185-2.613.304-3.924.1-1.098.17-2.194.187-3.297.015-.966.135-2.368-.21-3.283-.734-1.953 2.99-1.792 3.533-.346.667 1.775.477 3.984.363 5.849-.143 2.32-.454 4.627-.528 6.949m16.068-4.246c-.892 2.617-2.252 4.913-3.431 7.4.951 1.85 1.915 3.7 2.783 5.587.788 1.715 1.373 3.624 2.921 4.833.545.424.523.85-.243.902-.83.058-1.958-.18-2.629-.704-1.408-1.099-2.3-2.433-3.035-4.05a157.054 157.054 0 00-2.977-6.186c-.465-.3-.744-.723-.607-1.2-.75-1.485-1.517-2.96-2.371-4.376-.283 5.25-.905 10.496-1.093 15.752-.041 1.205-3.767.455-3.714-.996.23-6.517 1.155-13.02 1.22-19.536l-.047-.048c-.285-.293-.178-.469.051-.57a57.743 57.743 0 00-.199-4.987c-.448-.709.439-1.08 1.029-1.08h.092c.701 0 2.49.33 2.579 1.293.182 1.992.237 3.982.221 5.971 1.508 1.627 2.741 3.444 3.848 5.348.72-1.406 1.406-2.822 1.887-4.35.817-2.602 2.182-4.99 2.971-7.605.517-1.712 4.229-.7 3.717.997-.79 2.612-2.092 5.025-2.973 7.605m8.433 4.54c-.1 1.184-.207 2.365-.288 3.553-.15 2.212.11 5.299 2.172 6.642.553.36 1.59.298 2.235.416.922.165 1.857.369 2.685-.181 1.148-.762.865-3.471.863-4.62-.002-1.904.198-3.797.295-5.698A13.178 13.178 0 0096.8 24.7c-2.17.052-4.311.393-6.365-.04m13.872-.142c-.2.79-1.302.807-2.156.73-.012.319-.02.638-.033.957-.12 2.525-.16 5.104-.371 7.622-.2 2.33-1.505 3.167-3.77 3.08-2.293-.087-4.962-.5-7.101-1.331-2.474-.962-3.851-2.785-4.326-5.392-.522-2.86.227-5.9.354-8.774.146-3.325.062-6.656.058-9.981 0-.545 3.717-.03 3.717.996.004 2.633.04 5.268 0 7.9a50.888 50.888 0 01-.097 2.319c1.3.563 3.499-.011 4.792-.133 1.052-.1 2.059.155 3.08.275.019-2.193.1-4.4.19-6.59.048-1.122.454-3.351-.334-4.28-.414-.491 1.405-.326 1.475-.314.753.139 1.67.38 2.185.988.902 1.062.433 3.597.38 4.863-.073 1.815-.096 3.63-.134 5.444 1.096.143 2.295.814 2.09 1.62M30.778 35.718a2.99 2.99 0 011.401.497c.082.068.162.138.245.206.493.318.92.785.69 1.29-.479 1.05-.403 2.118-.395 3.24.006.91-.914 1.184-1.69 1.116-.686-.061-2.058-.552-2.063-1.443-.007-.942-.068-1.913.104-2.841-.047-.106-.072-.226-.099-.336-.053-.201.015-.398.135-.56l.002-.127.014-.317a.856.856 0 01.407-.503c.367-.222.832-.263 1.25-.222"/></g></symbol><symbol viewBox="0 0 23.466 23.465" id="search" xmlns="http://www.w3.org/2000/svg"><defs><clipPath id="ha" clipPathUnits="userSpaceOnUse"><path d="M0 17.599h17.6V0H0z"/></clipPath></defs><g clip-path="url(#ha)" transform="matrix(1.33333 0 0 -1.33333 0 23.465)"><path d="M2.198 9.9a5.5 5.5 0 1011 0 5.5 5.5 0 00-5.5-5.5 5.499 5.499 0 00-5.5 5.5M17.27 1.87l-3.415 3.414A7.67 7.67 0 0115.4 9.9a7.698 7.698 0 01-7.7 7.698A7.697 7.697 0 010 9.9c0-4.253 3.445-7.7 7.698-7.7 1.734 0 3.326.58 4.613 1.546L15.728.33c.203-.202.418-.33.772-.33a1.1 1.1 0 011.1 1.1c0 .24-.062.498-.33.77"/></g></symbol><symbol viewBox="0 0 31.325 26.891" id="twitter" xmlns="http://www.w3.org/2000/svg"><defs><clipPath id="ia" clipPathUnits="userSpaceOnUse"><path d="M0 20.168h23.494V0H0z"/></clipPath></defs><g clip-path="url(#ia)" transform="matrix(1.33333 0 0 -1.33333 0 26.89)"><path d="M14.857 14.602c.163-.135.284-.31.52-.37.1-.222.313-.328.592-.37.047.15.346.048.37.221.174.023.166.23.296.297-.017.55-.129 1.006-.37 1.333-.758.424-1.676-.038-1.408-1.11m5.483 3.037c-.129-.34-.23-.707-.592-.815-.017.105-.122.125-.148.222-.012.21.21.185.296.296.163.085.245.248.444.297-.006.09.11.046 0 0m-.295-5.632c-.154-.858-.616-1.41-1.039-2 .06-.38-.103-.538-.073-.888a4.327 4.327 0 01-.37-1.038c-.204-.267-.333-.607-.519-.89-.367-.548-.778-1.05-1.186-1.557-.378-.558-.912-.965-1.334-1.48-.42-.494-.942-.886-1.407-1.335a4.967 4.967 0 01-1.26-.667 5.06 5.06 0 01-.667-.296c-.177-.146-.499-.145-.668-.297-1.086-.147-2.3-.17-3.555-.148-1.03.105-2.115.16-3.039.371-.923.19-1.51.712-2.297 1.037.153.242.634.154.963.221.031.166.394.003.444.15.257-.06.285.11.52.073.563.201 1.23.302 1.704.593.282.138.406.433.667.593.033.19.103.34.221.444.048.275.202.441.15.815.11.21.298.343.295.667-.074.148-.128.317-.296.372-.026.196-.378.067-.444.221-.255-.032-.416.03-.593.075-.154.043-.487-.09-.519.074-.842.023-1.3.43-1.853.74.431.262 1.032.352 1.334.742.516.076 1.057.13 1.112.666 0 .717-.77.661-1.333.815-.774.661-1.195 1.672-1.779 2.52.238.157.564.226.74.444.455-.057.54.251.667.52.02.488-.332.605-.592.815a3.47 3.47 0 00-.667.741c-.003.818-.022 1.651.074 2.371.063.014.07-.029.074-.074.226-.44.56-.775.815-1.186.532-.357.925-.853 1.556-1.11.452-.414 1.11-.623 1.557-1.039.6-.263 1.158-.57 1.704-.889.67-.195 1.056-.673 2.001-.593.198.098.393.2.593.297.257.456-.059 1.08.147 1.63.255.66.797 1.031 1.26 1.482.29.155.555.335.815.52.347.096.675.215.964.37.376.018.713.077 1.037.147h1.26c.244-.052.475-.119.74-.148.21-.137.38-.313.666-.37.79-.694 1.271-1.696 1.41-3.039-.124-.485.051-.874 0-1.482m3.408 4.075c-.227.367-.909.278-1.408.372h-1.112c.142.352.343.646.52.963.055.438.254.734.222 1.26.13.166.176.416.296.592.104.145.242.478.074.667-.05.221-.294.248-.592.222a.506.506 0 01-.222-.148c-.448-.433-.778-1.013-1.26-1.408-.01-.008-.062.001-.075 0-.087-.004-.033-.046-.075-.074-.147-.097-.257-.152-.369-.222-.284-.177-.547-.445-.89-.519-.53.211-1.157.326-1.852.37-1.158-.102-2.303-.215-3.039-.74-.91-.35-1.476-1.043-2.149-1.63-.049-.32-.342-.399-.37-.742-.005-.045-.012-.088-.073-.074.043-.24-.05-.345-.075-.518 0-.133.2-.432 0-.52-.822.12-1.485.63-2.149.964-.718.36-1.468.603-2.074 1.111-.716.322-1.26.816-1.778 1.334-.209.311-.542.495-.668.89-.379.164-.175.912-.74.89-.316.042-.345-.2-.445-.372-.07-.226-.36-.232-.37-.518-.005-.046-.012-.089-.075-.075-.17-1.089-.528-1.992-.519-3.26.13-.415.35-.738.593-1.038-.418-.05-.716-.222-.89-.519-.059-1.073.378-1.647.742-2.297.134-.383.351-.684.593-.963.017-.229.206-.288.296-.445.018-.105.122-.125.15-.222-.042-.106.287-.18.072-.22-.413-.132-1.016-.07-1.26-.372-.109-.28-.109-.833 0-1.112.034-.237.283-.26.297-.518.5-.417 1.081-.747 1.631-1.112.574-.166 1.211-.27 1.852-.37-.102-.343-.338-.55-.593-.742-.78-.38-1.849-.473-2.742-.74-.555-.038-.956-.23-1.556-.223C1.04 3.878.518 3.93.26 3.783c-.12-.069-.1-.096-.222-.22-.134-.413.111-.74.444-.89-.005-.254.22-.277.371-.372.09-.182.254-.29.445-.37.544-.468 1.268-.759 1.927-1.112C4.054.636 4.872.443 5.744.3c.895-.116 1.9-.124 2.815-.22h.963c.511-.133 1.231-.055 1.853-.076.094.102.322.074.518.075.523.268 1.196.384 1.631.74.574.241.99.641 1.557.89.866.764 1.936 1.324 2.518 2.372.205.19.351.438.446.74.264.156.384.454.592.667.405.41.706.924 1.037 1.408.32.496.577 1.054.89 1.556-.01.405.306.484.296.89.193.225.177.661.371.888-.033.255.03.415.074.594.047 1.281-.047 2.422-.297 3.407.588.155 1.181.302 1.631.593.526.185.998.582.814 1.26"/></g></symbol></svg>