<?xml version="1.0" encoding="utf-8"?><svg xmlns="http://www.w3.org/2000/svg" xmlns:xlink="http://www.w3.org/1999/xlink"><symbol viewBox="0 0 282 262" shape-rendering="geometricPrecision" text-rendering="geometricPrecision" image-rendering="optimizeQuality" fill-rule="evenodd" clip-rule="evenodd" id="cart" xmlns="http://www.w3.org/2000/svg"><path d="M271 100h-44L180 5c-3-5-9-7-14-5-5 3-7 9-5 14l43 85H77l43-85c3-5 0-11-5-14s-11 0-14 5l-47 95H10c-6 0-10 5-10 10 0 6 5 10 10 10h2l12 42c-3 2-4 5-4 8 0 5 4 10 10 10l23 80h176l23-80c5 0 10-5 10-10 0-3-2-6-4-8l12-42h2c6 0 10-5 10-10 0-6-5-10-10-10zm-58 141H68l-17-60h179l-17 60zm23-80H45l-11-39h213l-11 39z" fill-rule="nonzero"/></symbol><symbol viewBox="0 0 15 28" fill-rule="evenodd" id="facebook" xmlns="http://www.w3.org/2000/svg"><path d="M4.8 1.1C3.6 1.8 3 3.4 3 6c0 2.9-.4 4-1.5 4-.9 0-1.5.9-1.5 2.5S.6 15 1.5 15C2.7 15 3 16.4 3 21.5 3 27.9 3 28 5.8 28c4.6 0 5.4-1.2 5.1-7.4-.3-3.7 0-5.6.7-5.6 1.3 0 2.4-2.2 2.4-4.6 0-.8-.9-1.4-2-1.4s-2-.7-2-1.5c0-.9 1-1.5 2.6-1.5 2.2 0 2.5-.4 2.2-2.8C14.5.8 14 .5 10.5.3c-2.2-.2-4.8.2-5.7.8zM11 2.9c0 .5-.9 1.1-2 1.4-3 .8-2.8 6.4.3 7.7 2.2.9 2 1-2.5 1.4-2.9.2-1-9.9 2-10.7.9-.3 1.8-.5 2-.6.1 0 .2.3.2.8zM7.7 23.7c-.3 1-.5.2-.5-1.7s.2-2.7.5-1.8c.2 1 .2 2.6 0 3.5z"/></symbol><symbol viewBox="0 0 22 21" fill-rule="evenodd" id="instagram" xmlns="http://www.w3.org/2000/svg"><path d="M.2 10.2l.3 10.3 10.8.3 10.8.3-.3-10.3L21.5.5 10.7.2-.1-.1l.3 10.3zm4.2-.2c-.4 1.8-.1 3.7.7 4.7 1.2 1.6 1.1 1.7-.4.3-.9-.8-1.9-3-2.3-4.8-.5-2.5-.3-3.2 1-3.2 1.2 0 1.4.7 1 3zM19 13v6h-4.2c-2.4 0-5-.5-5.8-1-1.1-.7-.7-1 1.9-1 4.5 0 7.1-2.4 7.1-6.7 0-1.8.2-3.3.5-3.3s.5 2.7.5 6zm-5.5-4c.3.5.1 1-.4 1-.6 0-1.1-.5-1.1-1 0-.6.2-1 .4-1 .3 0 .8.4 1.1 1z"/></symbol><symbol viewBox="0 0 86 35" fill-rule="evenodd" id="logo-mobile" xmlns="http://www.w3.org/2000/svg"><path d="M18 3.1c0 2.6.3 3 2.3 2.7 1.6-.2 2.3-1.1 2.5-3.1.3-2.3 0-2.7-2.2-2.7S18 .4 18 3.1zM54 3c-1.2.7-1.4 2.5-1 9.5.3 4.8.2 8.9-.2 9.2-.5.2-.8-2.4-.8-5.9C52 7.5 51.2 5 48.8 5c-1.8 0-2 .6-1.6 5 .2 4.2 0 5-1.4 5-1.2 0-1.8-.8-1.8-2.4C44 7.4 42.8 4 40.9 4c-1.7 0-1.9.9-2.1 9.7-.1 5.4-.3 8-.5 5.8-.5-4.6-1.5-5.5-6-5.5-3.2 0-3.3-.2-3.3-4 0-3.3.3-4 2-4 1.1 0 2 .4 2 1 0 .5 1.1 1 2.5 1 3 0 3.3-2.5.5-4-2.4-1.3-8.5-.3-10.5 1.6-.9.9-1.1 2.7-.8 5.6.3 2.4.7 4.5.9 4.7.2.2 2.1.7 4.1 1 3.7.6 3.8.7 3.8 5.1 0 3.3-.4 4.5-1.5 4.5-.9 0-1.6-1.1-1.8-2.8-.5-4.3-3.7-3.2-3.7 1.3 0 3.3.2 3.5 3.9 3.8 2.8.2 4.7-.3 6.8-1.8 2.3-1.7 2.8-1.8 2.8-.5 0 .8.9 1.5 2 1.5 1.7 0 2-.7 2-5s.3-5 2-5 2 .7 2 4.9c0 5.5 1 6.9 3.4 4.5.9-.9 1.6-1.1 1.6-.4 0 .6 1 1 2.3.8 1.6-.2 2.3-1.1 2.5-3.3.2-1.6.9-3.7 1.6-4.7 1.2-1.7 1.5-1.4 3.4 3.2 1.5 3.7 2.6 5 4.1 5 2.7 0 2.6-.6-.6-8.7l-2.7-6.7 2.7-5c1.5-2.7 2.5-5.1 2.3-5.4-1.5-1.4-5 1.7-7.3 6.3-1.5 3-3 5.2-3.5 4.9-.4-.3-.8-2.7-.8-5.4 0-5.2-.7-6.3-3-5zM12.2 5.2c-.7.7-1.2 1.7-1.2 2.2 0 .6-.5 2.9-1.1 5.1l-1.1 4L6.6 11C5 7 3.8 5.4 2.2 5.2 0 4.9 0 5.1 0 16.5 0 28 0 28.1 2.3 27.8c2-.3 2.2-.9 2.1-5.3v-5l1.4 3.7c1.6 4.1 3.5 4.8 5.1 2 .8-1.4 1-1 1.1 2.1 0 3.4.3 3.8 2.3 3.5 2.4-.3 2.4-.7 1.9-18.8-.2-6.1-1.3-7.5-4-4.8zm61.2.2c-4.1 1.8-4.6 3.4-3.8 13.8.6 7.4 1 8.8 2.3 8.6 1.1-.2 1.7-1.7 1.9-5.1.3-4.5.5-4.7 3.3-4.7s2.9.1 2.9 5c0 2.7.2 5 .4 5 2.6 0 3.6-1.6 3.6-6 0-3 .5-5 1.3-5.3 1-.4 1-.7 0-1.8-.7-.7-1.3-2.7-1.3-4.5 0-1.8-.3-3.9-.6-4.8-.8-2-5.7-2-10-.2zm6.6 6.2c0 3.1-.3 3.4-3 3.4-2.1 0-3-.5-3.1-1.8-.2-3.2.2-4.7 1.8-5.9 2.3-1.8 4.3.2 4.3 4.3zM19.7 7.7c-.9.8-.9 15-.1 18.1 1 3.4 4.4 2.9 4.4-.6 0-12.9-1.8-20.1-4.3-17.5zm-7.8 24.4c-4.2.4-8.5 1.1-9.5 1.8-1.4.8 7.8 1 37.8.9 36-.3 42.3-.6 40.6-2.4-.8-.7-59.8-1-68.9-.3z"/></symbol><symbol viewBox="0 0 18 18" fill-rule="evenodd" id="search" xmlns="http://www.w3.org/2000/svg"><path d="M2.2 2c-3 2.8-3 9.2-.1 12.1 1.7 1.7 3 2 6.5 1.6 3-.3 4.7 0 5.5.9 1.5 1.8 3.9 1.8 3.9 0 0-.7-.6-1.9-1.4-2.5-1-.8-1.2-2.4-.9-5.1.5-3.2.1-4.3-2-6.4C10.5-.6 5.3-.9 2.2 2zM11 5c2.5 2.5 2.5 3.2.2 6-1.4 1.8-2.5 2.1-4.5 1.6-3.5-.8-4.6-4.9-2.2-7.6 2.3-2.5 4-2.5 6.5 0z"/></symbol><symbol viewBox="0 0 23 20" fill-rule="evenodd" id="twitter" xmlns="http://www.w3.org/2000/svg"><path d="M2.5 1c-1.2 1.9-.8 10.9.5 12.5 1 1.2 1 1.5-.3 1.5-.9 0-1.9.5-2.2 1-2.6 4.2 11 5.7 15.9 1.9 3.7-2.9 5.6-7 6-12.9.3-4.7-.7-6.4-2.7-4.4-.4.4-2.1.8-3.9.9-1.7.2-3.7 1.1-4.4 2-1.3 1.8-2.5 1.5-6-1.7C3.8.4 3 .2 2.5 1zm16.8 4.8c.5 2.3-2.8 8.7-5.5 10.6-1.2.9-3.8 1.6-5.7 1.6-3.1 0-3.3-.1-1.7-1.3 2-1.4 1.4-5.8-.9-7.7-.8-.6-1.1-1.7-.9-2.5.4-1.1 1.1-1 3.4.3 2.8 1.6 3 1.6 4.3-.2 1-1.3 1.6-1.5 2.1-.8 1.2 1.9 2.9 1.4 2.3-.7-.3-1.3-.1-1.8.9-1.4.7.2 1.5 1.2 1.7 2.1z"/></symbol></svg>