<svg xmlns="http://www.w3.org/2000/svg" width="112pt" height="46pt" viewBox="0 0 112 46" fill-rule="evenodd"><path d="M83.8.6c-.4.3-17.7.5-38.6.4-22.1 0-39 .4-40.5.9C.7 3.5-.2 8.1.2 25.8l.3 15.7 3.3 1.7c2.9 1.4 6.2 1.6 22.5 1.3 10.6-.2 25.1-.6 32.2-.9 7.7-.4 16.7-.3 22 .4 5 .6 11.1 1.3 13.7 1.6 3.4.4 6.6 0 11.4-1.6l6.6-2.2-.3-19.5c-.4-17.9-.6-19.6-2.3-20.9C108.1.4 104.5 0 96 0c-6.4 0-11.9.3-12.2.6zM33 6.9c0 1.6-.6 3.1-1.4 3.4-1.9.8-2.6-.1-2.6-3.5 0-2.1.5-2.8 2-2.8s2 .7 2 2.9zm38.8 7.4c.2 3.7.6 6.7 1.1 6.7.4 0 1.8-2.2 3.1-5 2.6-5.6 5.4-9 7.4-9 1 0 .5 1.6-1.6 5.5L78.9 18l3.2 8.1c2.8 6.7 3.1 8.2 1.9 8.9-2 1.3-2.5.7-5-6.1l-2.3-6.1-1.8 2.3c-1 1.3-1.9 4-2.1 5.9-.2 2.8-.8 3.6-2.7 3.8-2 .3-2.3 0-1.8-2 .3-1.2.2-7-.2-12.8-.8-10.3-.2-13.5 2.3-12.7.6.2 1.2 3.3 1.4 7zM49 9.5c.6.8.9 1.9.5 2.5-.9 1.5-3.2 1.2-3.9-.6-.3-.9-1.5-1.4-2.8-1.2-2 .3-2.3.9-2.3 4.8 0 4.5 0 4.5 3.7 4.8 4.8.4 6.8 3.2 6.8 9.3 0 3.9-.4 4.7-2.5 5.7-3.8 1.7-10.2 1.5-10.9-.3-.8-2.1 1.2-6.7 2.7-6.2.6.2 1.2 1.5 1.2 2.8 0 1.9.6 2.5 2.8 2.7l2.8.3-.6-4.8c-1-7.2-1.1-7.3-5.4-7.3-3.4 0-4.2-.4-4.7-2.4-1.1-4.6 0-9 2.6-10.3 3.4-1.7 8.5-1.6 10 .2zm7.4 1.6c.3 1.7.6 4.9.6 7 0 2.5.5 3.9 1.3 3.9 2.8-.1 3.7-1.7 3.5-6.6-.3-4.3-.1-4.9 1.7-4.9s2.1.9 2.8 11.4c.5 8.1.4 11.8-.4 12.8-1.7 1.9-3.3 1.1-3.4-1.8-.4-8.9-.4-8.9-3-8.9-2.4 0-2.5.3-2.5 5.5 0 4.8-.2 5.5-2 5.5-1.4 0-2-.7-2.1-2.3 0-1.2-.2-6.9-.4-12.7-.3-9.9.2-11.9 2.6-12 .4 0 .9 1.4 1.3 3.1zM26 21.9c.3 6.7.4 12.6.2 13.1-.2.6-1.2 1-2.3 1-1.7 0-1.9-.8-2-6.3-.1-6-.1-6.1-1.1-2.5-1.3 5-3.9 5-5.8 0l-1.5-3.7L13 29c-.4 4.7-.8 5.5-2.5 5.5-1.9 0-2-.7-2-12 0-11.2.1-12 2-12 1.4 0 2.5 1.6 4.4 6.4l2.5 6.4 1.3-2.9c.7-1.6 1.5-4.5 1.9-6.4.7-3.6 2.1-5.2 3.9-4.7.6.2 1.2 5.8 1.5 12.6zm75.4-11.3c.3.9.6 3.2.6 5.3 0 2 .6 4.3 1.3 5 .8.9.9 1.5.1 1.8-.7.2-.9 2.2-.6 5.2.4 4.2.1 5.1-1.7 6-1.1.7-2.1 1-2.2.9 0-.2-.3-2.6-.6-5.3-.2-2.8-.5-5.1-.6-5.1-.1-.1-1.6-.5-3.4-.9l-3.2-.6-.3 5.8c-.2 4.3-.7 5.9-1.9 6.1-1.3.2-1.7-1.3-2.2-9.5-.6-8.6-.5-10.1 1.1-12.3 2.9-3.8 12.4-5.6 13.6-2.4zm-68 4.1c.3 1.6.6 6.6.8 11.3.2 7.9.1 8.5-1.8 8.8-2 .3-2.1-.3-2.8-10.4-.5-8.3-.4-10.9.6-11.5 2.1-1.4 2.6-1.1 3.2 1.8z"/><path d="M90.9 13.6c-.5 1.6-.8 3.9-.4 5.1.4 1.9 1.2 2.3 4.1 2.3h3.5l-.3-4.8c-.3-4.3-.5-4.7-3-5-2.3-.3-3 .2-3.9 2.4z"/></svg>